<?xml version="1.0" encoding="utf-8"?>
<!-- Generator: Adobe Illustrator 20.1.0, SVG Export Plug-In . SVG Version: 6.00 Build 0)  -->
<svg version="1.1" id="Capa_1" xmlns="http://www.w3.org/2000/svg" xmlns:xlink="http://www.w3.org/1999/xlink" x="0px" y="0px"
	 viewBox="0 0 425 243.4" style="enable-background:new 0 0 425 243.4;" xml:space="preserve">
<g>
	<path d="M10,243.4h41.9c5.5,0,10-4.5,10-10v-41.9c0-5.5-4.5-10-10-10h-8.1c12.7-70.1,67.5-125.1,137.9-137.8v8.1
		c0,5.5,4.5,10,10,10h41.9c5.5,0,10-4.5,10-10v-8.1c70.3,12.8,125.1,67.7,137.9,137.8h-8.2c-5.5,0-10,4.5-10,10v41.9
		c0,5.5,4.5,10,10,10H415c5.5,0,10-4.5,10-10v-41.9c0-5.5-4.5-10-10-10h-13.4c-6.3-38.7-24.7-75.1-52.4-103.3
		c-15-15.3-32.5-27.9-51.5-37.3h68.9c3.1,4.2,8.1,7,13.7,7c9.4,0,17-7.6,17-17c0-9.4-7.6-17-17-17c-5.6,0-10.6,2.8-13.7,7H243.4V10
		c0-5.5-4.5-10-10-10h-41.9c-5.5,0-10,4.5-10,10v10.9H58.5c-3.1-4.2-8.1-7-13.7-7c-9.4,0-17,7.6-17,17c0,9.4,7.6,17,17,17
		c5.6,0,10.6-2.8,13.7-7h68.9C108.3,50.4,90.8,63,75.7,78.4c-27.6,28.1-46,64.5-52.3,103.2H10c-5.5,0-10,4.5-10,10v41.9
		C0,238.9,4.5,243.4,10,243.4z M405,223.4h-21.9v-21.9H405V223.4z M201.6,20h21.9v21.9h-21.9L201.6,20L201.6,20z M20,201.6h21.9
		v21.9H20V201.6z"/>
</g>
</svg>
