<?xml version="1.0" encoding="utf-8"?>
<!-- Generator: Adobe Illustrator 20.1.0, SVG Export Plug-In . SVG Version: 6.00 Build 0)  -->
<svg version="1.1" id="Capa_1" xmlns="http://www.w3.org/2000/svg" xmlns:xlink="http://www.w3.org/1999/xlink" x="0px" y="0px"
	 viewBox="0 0 363.6 333.9" style="enable-background:new 0 0 363.6 333.9;" xml:space="preserve">
<g>
	<path d="M34,333.9c18.8,0,34-15.3,34-34c0-7.4-2.4-14.3-6.4-19.9l58-70.3c4,1.7,8.4,2.6,13,2.6c8.6,0,16.5-3.2,22.5-8.6l43,26.2
		c-0.7,2.7-1,5.5-1,8.4c0,18.8,15.3,34,34,34s34-15.3,34-34c0-9.9-4.2-18.8-11-25L324,67.6c1.8,0.3,3.7,0.5,5.6,0.5
		c18.8,0,34-15.3,34-34s-15.3-34-34-34s-34,15.3-34,34c0,9.7,4.1,18.4,10.6,24.6l-70,146c-1.6-0.2-3.3-0.4-5.1-0.4
		c-8.6,0-16.5,3.2-22.5,8.6l-43-26.2c0.7-2.7,1-5.5,1-8.4c0-18.8-15.3-34-34-34s-34,15.3-34,34c0,6.9,2.1,13.3,5.6,18.7l-58.5,71
		c-3.6-1.3-7.6-2.1-11.6-2.1c-18.8,0-34,15.3-34,34S15.3,333.9,34,333.9z M329.6,20c7.7,0,14,6.3,14,14s-6.3,14-14,14
		c-7.7,0-14-6.3-14-14S321.9,20,329.6,20z M231.1,224.2c7.7,0,14,6.3,14,14s-6.3,14-14,14s-14-6.3-14-14S223.3,224.2,231.1,224.2z
		 M132.6,164.2c7.7,0,14,6.3,14,14c0,7.7-6.3,14-14,14s-14-6.3-14-14C118.5,170.4,124.8,164.2,132.6,164.2z M34,285.8
		c7.7,0,14,6.3,14,14c0,7.7-6.3,14-14,14s-14-6.3-14-14C20,292.1,26.3,285.8,34,285.8z"/>
</g>
</svg>
