<?xml version="1.0" encoding="utf-8"?>
<!-- Generator: Adobe Illustrator 20.1.0, SVG Export Plug-In . SVG Version: 6.00 Build 0)  -->
<svg version="1.1" id="Layer_1" xmlns="http://www.w3.org/2000/svg" xmlns:xlink="http://www.w3.org/1999/xlink" x="0px" y="0px"
	 viewBox="0 0 282.6 512" style="enable-background:new 0 0 282.6 512;" xml:space="preserve">
<g>
	<path d="M253,501.8V273c17-4.5,29.6-20,29.6-38.4v-45.5c0-18.4-12.6-33.9-29.6-38.4V10.2C253,4.6,248.4,0,242.8,0
		s-10.2,4.6-10.2,10.2v140.4c-17,4.5-29.6,20-29.6,38.4v45.5c0,18.4,12.6,33.9,29.6,38.4v228.8c0,5.6,4.6,10.2,10.2,10.2
		S253,507.4,253,501.8z M223.4,234.6v-45.5c0-10.7,8.7-19.4,19.4-19.4s19.4,8.7,19.4,19.4v45.5c0,10.7-8.7,19.4-19.4,19.4
		S223.4,245.3,223.4,234.6z"/>
	<path d="M253,231.2v-38.7c0-5.6-4.6-10.2-10.2-10.2s-10.2,4.6-10.2,10.2v38.7c0,5.6,4.6,10.2,10.2,10.2S253,236.8,253,231.2z"/>
	<path d="M152,501.8V346.5c17-4.5,29.6-20,29.6-38.4v-45.5c0-18.4-12.6-33.9-29.6-38.4V10.2C152,4.6,147.4,0,141.8,0
		s-10.2,4.6-10.2,10.2v213.9c-17,4.5-29.6,20-29.6,38.4V308c0,18.4,12.6,33.9,29.6,38.4v155.3c0,5.6,4.6,10.2,10.2,10.2
		C147.4,512,152,507.4,152,501.8z M122.4,308v-45.5c0-10.7,8.7-19.4,19.4-19.4c10.7,0,19.4,8.7,19.4,19.4V308
		c0,10.7-8.7,19.4-19.4,19.4C131.1,327.4,122.4,318.7,122.4,308z"/>
	<path d="M152,304.6v-38.7c0-5.6-4.6-10.2-10.2-10.2s-10.2,4.6-10.2,10.2v38.7c0,5.6,4.6,10.2,10.2,10.2
		C147.4,314.8,152,310.2,152,304.6z"/>
	<path d="M50,501.8v-9.2c0-5.6-4.6-10.2-10.2-10.2s-10.2,4.6-10.2,10.2v9.2c0,5.6,4.6,10.2,10.2,10.2S50,507.4,50,501.8z"/>
	<path d="M50,451.8V194.5c17-4.5,29.6-20,29.6-38.4v-45.5C79.6,92.1,67,76.6,50,72.1V10.2C50,4.6,45.4,0,39.8,0S29.6,4.6,29.6,10.2
		v61.9C12.6,76.6,0,92.1,0,110.5V156c0,18.4,12.6,33.9,29.6,38.4v257.3c0,5.6,4.6,10.2,10.2,10.2S50,457.5,50,451.8z M20.4,156
		v-45.5c0-10.7,8.7-19.4,19.4-19.4c10.7,0,19.4,8.7,19.4,19.4V156c0,10.7-8.7,19.4-19.4,19.4C29.1,175.4,20.4,166.7,20.4,156z"/>
	<path d="M50,152.6V114c0-5.6-4.6-10.2-10.2-10.2s-10.2,4.6-10.2,10.2v38.7c0,5.6,4.6,10.2,10.2,10.2S50,158.3,50,152.6z"/>
</g>
</svg>
