<?xml version="1.0" encoding="utf-8"?>
<!-- Generator: Adobe Illustrator 20.1.0, SVG Export Plug-In . SVG Version: 6.00 Build 0)  -->
<svg version="1.1" id="Capa_1" xmlns="http://www.w3.org/2000/svg" xmlns:xlink="http://www.w3.org/1999/xlink" x="0px" y="0px"
	 viewBox="0 0 423.7 237.5" style="enable-background:new 0 0 423.7 237.5;" xml:space="preserve">
<g>
	<path d="M45.9,214.6c0-10.4-6.9-19.2-16.4-22c4.4-41.1,22.7-79.8,51.9-109.3C110.6,53.7,149,34.9,190,30c3,9.2,11.7,15.9,21.9,15.9
		s18.9-6.7,21.9-15.9c41,4.9,79.4,23.7,108.6,53.2c29.2,29.6,47.5,68.2,51.9,109.3c-9.5,2.8-16.4,11.6-16.4,22c0,12.7,10.3,23,23,23
		c12.7,0,23-10.3,23-23c0-10.8-7.5-19.8-17.5-22.3V82.8h4.5c3,0,5.5-2.5,5.5-5.5V57.3c0-3-2.5-5.5-5.5-5.5h-19.9
		c-3,0-5.5,2.5-5.5,5.5v19.9c0,3,2.5,5.5,5.5,5.5h4.5v64.9c-9.5-26.9-24.8-51.6-45.1-72.2c-21.4-21.7-47.5-37.9-75.9-47.5H316v4.5
		c0,3,2.5,5.5,5.5,5.5h19.9c3,0,5.5-2.5,5.5-5.5V12.5c0-3-2.5-5.5-5.5-5.5h-19.9c-3,0-5.5,2.5-5.5,5.5V17h-81.9
		c-2.6-9.8-11.6-17-22.2-17s-19.5,7.2-22.2,17h-81.9v-4.5c0-3-2.5-5.5-5.5-5.5H82.3c-3,0-5.5,2.5-5.5,5.5v19.9c0,3,2.5,5.5,5.5,5.5
		h19.9c3,0,5.5-2.5,5.5-5.5V28h41.7C121.1,37.6,95,53.8,73.6,75.5c-20.3,20.6-35.7,45.3-45.1,72.3v-65h4.5c3,0,5.5-2.5,5.5-5.5V57.3
		c0-3-2.5-5.5-5.5-5.5H13c-3,0-5.5,2.5-5.5,5.5v19.9c0,3,2.5,5.5,5.5,5.5h4.5v109.5C7.5,194.7,0,203.8,0,214.6c0,12.7,10.3,23,23,23
		S45.9,227.2,45.9,214.6z M412.7,214.6c0,6.6-5.4,12-12,12s-12-5.4-12-12s5.4-12,12-12S412.7,208,412.7,214.6z M211.9,11
		c6.6,0,12,5.4,12,12s-5.4,12-12,12s-12-5.4-12-12S205.3,11,211.9,11z M11,214.6c0-6.6,5.4-12,12-12s12,5.4,12,12s-5.4,12-12,12
		S11,221.2,11,214.6z"/>
</g>
</svg>
